<svg width="1200" height="800" viewBox="0 0 1200 800" xmlns="http://www.w3.org/2000/svg" role="img" aria-label="Team producing liquid soap">
  <defs>
    <linearGradient id="g1" x1="0" x2="1" y1="0" y2="1">
      <stop offset="0" stop-color="#ecf8f1"/>
      <stop offset="1" stop-color="#ffffff"/>
    </linearGradient>
    <linearGradient id="soap" x1="0" x2="0" y1="0" y2="1">
      <stop offset="0" stop-color="#25b36a"/>
      <stop offset="1" stop-color="#178e4d"/>
    </linearGradient>
    <clipPath id="rounded">
      <rect x="0" y="0" width="1200" height="800" rx="24" ry="24"/>
    </clipPath>
  </defs>
  <rect width="1200" height="800" fill="url(#g1)"/>
  <g clip-path="url(#rounded)">
    <!-- Worktable -->
    <rect x="80" y="560" width="1040" height="20" fill="#cfe8da"/>
    <rect x="80" y="580" width="1040" height="160" fill="#eaf5ef"/>
    <!-- Bottles -->
    <g transform="translate(160,420)">
      <rect x="0" y="80" width="80" height="140" rx="12" fill="url(#soap)"/>
      <rect x="18" y="60" width="44" height="30" rx="8" fill="#0f172a" opacity="0.12"/>
      <rect x="20" y="105" width="40" height="55" rx="6" fill="#ffffff" opacity="0.9"/>
      <circle cx="60" cy="135" r="6" fill="#1e9e57" opacity="0.6"/>
    </g>
    <g transform="translate(280,400)">
      <rect x="0" y="100" width="80" height="140" rx="12" fill="url(#soap)"/>
      <rect x="18" y="80" width="44" height="30" rx="8" fill="#0f172a" opacity="0.12"/>
      <rect x="20" y="125" width="40" height="55" rx="6" fill="#ffffff" opacity="0.9"/>
      <circle cx="60" cy="155" r="6" fill="#1e9e57" opacity="0.6"/>
    </g>
    <g transform="translate(400,440)">
      <rect x="0" y="60" width="80" height="140" rx="12" fill="url(#soap)"/>
      <rect x="18" y="40" width="44" height="30" rx="8" fill="#0f172a" opacity="0.12"/>
      <rect x="20" y="85" width="40" height="55" rx="6" fill="#ffffff" opacity="0.9"/>
      <circle cx="60" cy="115" r="6" fill="#1e9e57" opacity="0.6"/>
    </g>
    <!-- Person 1 (filling bottles) -->
    <g transform="translate(520,300)">
      <!-- body -->
      <path d="M60,220 c-10,-40 10,-70 40,-80 l80,-26 c16,-6 32,8 30,25 l-8,70 c-2,18 -18,31 -36,29 l-98,-18 z" fill="#1e9e57" opacity="0.9"/>
      <!-- head -->
      <circle cx="60" cy="170" r="26" fill="#3a2a1a"/>
      <circle cx="60" cy="166" r="22" fill="#4b3626"/>
      <!-- arm -->
      <rect x="88" y="196" width="68" height="16" rx="8" fill="#4b3626"/>
      <rect x="146" y="188" width="20" height="30" rx="6" fill="#4b3626"/>
      <!-- jug -->
      <g transform="translate(162,176)">
        <rect x="0" y="0" width="70" height="58" rx="10" fill="#bfe9d2"/>
        <rect x="6" y="6" width="58" height="40" rx="8" fill="url(#soap)"/>
        <rect x="22" y="-12" width="24" height="18" rx="6" fill="#bfe9d2"/>
      </g>
    </g>
    <!-- Person 2 (labeling) -->
    <g transform="translate(830,340)">
      <!-- body -->
      <path d="M40,220 c-8,-36 6,-64 36,-76 l60,-20 c14,-5 28,7 26,22 l-6,60 c-2,16 -16,28 -32,26 l-84,-12 z" fill="#178e4d" opacity="0.95"/>
      <!-- head -->
      <circle cx="40" cy="170" r="24" fill="#2f2013"/>
      <circle cx="40" cy="166" r="20" fill="#3b291a"/>
      <!-- arm -->
      <rect x="66" y="198" width="58" height="14" rx="7" fill="#3b291a"/>
      <rect x="120" y="192" width="18" height="26" rx="6" fill="#3b291a"/>
      <!-- label sheet -->
      <rect x="130" y="184" width="60" height="48" rx="8" fill="#ffffff" stroke="#d9e6dd"/>
      <rect x="136" y="190" width="48" height="12" rx="4" fill="#e6f3ec"/>
      <rect x="136" y="206" width="48" height="12" rx="4" fill="#e6f3ec"/>
    </g>
    <!-- Mixer tank -->
    <g transform="translate(120,220)">
      <rect x="0" y="0" width="260" height="160" rx="18" fill="#d9efe4" stroke="#bcdccc"/>
      <rect x="24" y="24" width="212" height="90" rx="12" fill="url(#soap)"/>
      <rect x="110" y="-40" width="40" height="60" rx="10" fill="#cfe8da"/>
      <rect x="126" y="-60" width="8" height="22" rx="4" fill="#cfe8da"/>
      <rect x="30" y="128" width="200" height="16" rx="8" fill="#cfe8da"/>
    </g>
    <!-- Decorative bubbles -->
    <g opacity="0.35" fill="#25b36a">
      <circle cx="980" cy="160" r="8"/>
      <circle cx="1010" cy="130" r="6"/>
      <circle cx="1040" cy="170" r="10"/>
      <circle cx="1080" cy="140" r="7"/>
    </g>
    <!-- Caption -->
    <g transform="translate(80,80)">
      <rect x="0" y="0" width="420" height="80" rx="12" fill="#ffffff" opacity="0.9"/>
      <text x="20" y="30" font-family="Poppins, Arial, sans-serif" font-size="24" font-weight="700" fill="#0f172a">Behind the Products</text>
      <text x="20" y="56" font-family="Poppins, Arial, sans-serif" font-size="16" fill="#556070">Our team carefully mixes, fills, and labels eco‑friendly liquid soap.</text>
    </g>
  </g>
</svg>